<?xml version="1.0" encoding="UTF-8"?>
<svg version="1.1" xmlns="http://www.w3.org/2000/svg" width="527" height="547">
<path d="M0 0 C173.91 0 347.82 0 527 0 C527 180.51 527 361.02 527 547 C353.09 547 179.18 547 0 547 C0 366.49 0 185.98 0 0 Z " fill="#020202" transform="translate(0,0)"/>
<path d="M0 0 C173.91 0 347.82 0 527 0 C527 180.51 527 361.02 527 547 C353.09 547 179.18 547 0 547 C0 366.49 0 185.98 0 0 Z M154 81 C152.84371094 81.61359375 151.68742187 82.2271875 150.49609375 82.859375 C135.83739288 90.93083259 122.46176869 100.86444498 110 112 C109.45359863 112.4846875 108.90719727 112.969375 108.34423828 113.46875 C66.80665568 150.46598217 39.70889835 203.41381618 35 259 C34.62674755 265.59943805 34.60921952 272.20436888 34.625 278.8125 C34.62587616 279.71284973 34.62675232 280.61319946 34.62765503 281.54083252 C34.67610612 296.6947899 35.68364404 311.16453663 39 326 C39.24669434 327.11503906 39.49338867 328.23007812 39.74755859 329.37890625 C43.18698763 344.49634755 47.69667363 358.84119515 54 373 C54.48122314 374.10843262 54.48122314 374.10843262 54.97216797 375.23925781 C68.77502938 406.91083113 91.80808256 435.75866837 119 457 C119.97195312 457.78890625 120.94390625 458.5778125 121.9453125 459.390625 C148.07166692 480.21313303 180.02834516 494.5207886 212.5625 501.75 C213.88918701 502.04801514 213.88918701 502.04801514 215.24267578 502.35205078 C229.55391098 505.37380064 243.73854956 506.33356646 258.32861328 506.26074219 C260.86645543 506.25003605 263.40358548 506.26070678 265.94140625 506.2734375 C281.0370989 506.28755414 296.15534037 505.36005969 310.875 501.8125 C311.7822583 501.59891846 312.6895166 501.38533691 313.62426758 501.1652832 C363.33396674 489.04610065 409.71416549 460.90770437 441 420 C441.4940332 419.35530762 441.98806641 418.71061523 442.49707031 418.04638672 C450.71767734 407.22150339 457.8288852 396.11088004 464 384 C464.53898926 382.94280762 464.53898926 382.94280762 465.08886719 381.86425781 C491.51504086 329.32853742 497.3828851 267.07917254 479 211 C474.65499381 198.1626907 469.40349022 185.93557138 463 174 C462.48832275 173.02087646 462.48832275 173.02087646 461.96630859 172.02197266 C434.91484715 120.35078338 385.23928462 81.43894865 330.21264648 63.71850586 C328.71801039 63.2331573 327.22793377 62.73357161 325.74243164 62.22094727 C270.18815285 43.07525788 204.67978762 53.88813276 154 81 Z " fill="#E9E9E9" transform="translate(0,0)"/>
<path d="M0 0 C-1.01707031 0.70962891 -1.01707031 0.70962891 -2.0546875 1.43359375 C-8.79517122 6.22288481 -14.9863201 11.32995895 -21 17 C-21.65355469 17.58910156 -22.30710937 18.17820313 -22.98046875 18.78515625 C-41.65916211 36.30846652 -53.08392223 60.31121434 -60.25 84.5 C-60.6197998 85.72650269 -60.6197998 85.72650269 -60.99707031 86.9777832 C-64.56266474 99.55722995 -65.37040043 112.35637371 -65.3125 125.375 C-65.31001251 126.05042847 -65.30752502 126.72585693 -65.30496216 127.42175293 C-65.12219962 159.61264453 -53.46009581 188.22483961 -30.9375 211.375 C-26.56177135 215.61897137 -21.92223387 219.40938496 -17 223 C-17.56203125 222.29746094 -18.1240625 221.59492188 -18.703125 220.87109375 C-19.46109375 219.92363281 -20.2190625 218.97617187 -21 218 C-21.75796875 217.06285156 -22.5159375 216.12570312 -23.296875 215.16015625 C-45.22367138 187.47233853 -57.04225044 152.5512126 -53.5703125 117.14453125 C-50.79105246 93.5639916 -41.75570669 71.59505561 -27 53 C-26.32582031 52.11183594 -25.65164062 51.22367188 -24.95703125 50.30859375 C-15.69739542 38.4515373 -4.68196305 29.02789347 8 21 C9.59714844 19.98486328 9.59714844 19.98486328 11.2265625 18.94921875 C40.83038509 1.09679646 78.90600451 -6.95480521 112.90039062 1.39160156 C121.23582237 3.8069383 129.41056579 7.28915702 136 13 C131.09287532 12.61070827 126.29398179 12.14918347 121.5 11 C87.42699214 2.93049327 50.95197036 12.12414483 21.47045898 29.73901367 C14.16956781 34.26754771 7.44949245 39.31489184 1 45 C0.03707031 45.81855469 -0.92585937 46.63710937 -1.91796875 47.48046875 C-23.50627277 66.17397746 -38.39821043 92.50253746 -42 121 C-42.32303358 126.3773921 -42.39140699 131.7403171 -42.375 137.125 C-42.3737915 137.85777161 -42.37258301 138.59054321 -42.37133789 139.34552002 C-42.2867369 158.23578705 -37.7485099 172.86676572 -30 190 C-30.15146484 189.3694873 -30.30292969 188.73897461 -30.45898438 188.08935547 C-38.18026951 154.97692116 -38.47236093 119.96441385 -20.625 90 C-1.17771386 58.77917729 30.20845195 38.4623216 65.58203125 29.77734375 C66.70996094 29.52082031 67.83789062 29.26429688 69 29 C69.93199219 28.77441406 70.86398437 28.54882812 71.82421875 28.31640625 C106.39820209 21.16486904 144.40473186 32.73699032 173.33496094 51.515625 C178.06687145 54.79270002 182.57689828 58.31933399 187 62 C187.52803223 62.43699219 188.05606445 62.87398437 188.60009766 63.32421875 C201.03153672 73.75395143 215.28671293 89.2581581 217.75 106.0625 C217.8325 107.031875 217.915 108.00125 218 109 C214.05390477 105.16311405 210.4490459 101.12030605 206.875 96.9375 C197.84777074 86.48046832 189.0965738 76.37109953 178 68 C177.20078125 67.39671875 176.4015625 66.7934375 175.578125 66.171875 C161.57081223 56.00970691 146.53411236 49.00937483 129.9375 44.25 C129.25461914 44.05124268 128.57173828 43.85248535 127.86816406 43.64770508 C97.23155107 35.30169642 62.41366388 38.13371921 34.625 53.8125 C5.67718537 71.32289137 -14.90109672 99.4885731 -23.3125 132.25 C-24.82856185 138.45555608 -25.72950768 144.61638134 -26 151 C-25.86464844 150.319375 -25.72929687 149.63875 -25.58984375 148.9375 C-18.88226918 118.73333188 2.13476612 88.84157766 27.75585938 71.83447266 C55.2334757 54.4086962 90.55719771 49.08465039 122.26831055 56.09130859 C149.55198684 62.92587957 174.20252156 81.83088976 191 104 C191.81210937 105.03511719 192.62421875 106.07023437 193.4609375 107.13671875 C203.91466884 120.79489058 210.64438283 136.43157389 215 153 C215.31839844 154.12664062 215.63679688 155.25328125 215.96484375 156.4140625 C220.90117504 176.56885294 219.58098692 199.09569378 211 218 C210.67 218 210.34 218 210 218 C210.01047363 217.15518066 210.02094727 216.31036133 210.03173828 215.43994141 C210.50229643 171.6661211 203.41422565 135.78962957 172 103 C171.23300781 102.16984375 170.46601563 101.3396875 169.67578125 100.484375 C155.61699853 85.72378509 137.21971047 76.23468657 118 70 C116.76765625 69.58492188 115.5353125 69.16984375 114.265625 68.7421875 C91.23846164 61.77618425 62.44079231 63.97242917 41 75 C30.41276276 80.91639728 21.15183416 88.42042894 12.9375 97.3125 C12.47214844 97.81612061 12.00679687 98.31974121 11.52734375 98.83862305 C9.22402413 101.40457937 7.34090309 103.81062034 6 107 C6.60521484 106.30777344 6.60521484 106.30777344 7.22265625 105.6015625 C22.6351996 89.04371338 48.81833174 75.96560251 71.56665039 74.87719727 C105.27951122 73.96258267 131.51170791 83.88255378 156 107 C178.34863277 129.07608847 192.15805466 159.97168854 192.41766357 191.39343262 C192.41772549 193.78343803 192.39921594 196.17262358 192.375 198.5625 C192.37001495 199.39349213 192.36502991 200.22448425 192.3598938 201.08065796 C192.15512879 230.29414885 187.14398075 257.68161261 174 284 C173.64679688 284.72654785 173.29359375 285.4530957 172.9296875 286.20166016 C166.47613046 299.41926461 158.82105444 310.8846665 148 321 C147.34 320.67 146.68 320.34 146 320 C146.40089844 319.46375 146.80179687 318.9275 147.21484375 318.375 C176.08941868 278.56606223 188.34790649 225.45373277 181 177 C176.10114187 149.85508859 160.36265684 122.66167252 137.74609375 106.65234375 C113.84733579 90.36034847 84.73400284 84.74488135 56.31640625 89.2890625 C51.05386434 90.4171928 46.03040241 92.10208261 41 94 C41.53181885 93.83991455 42.0636377 93.6798291 42.61157227 93.51489258 C59.27313663 89.92302513 79.76308923 92.72210302 96 97 C97.11761719 97.28875 98.23523438 97.5775 99.38671875 97.875 C126.37328817 105.94574973 146.1379994 124.03104409 159.81640625 148.2109375 C163.1579088 154.51865505 165.77085131 160.73588207 167.8125 167.5625 C168.10471436 168.53340576 168.10471436 168.53340576 168.40283203 169.52392578 C171.45328138 180.42222718 172.36672641 191.40919296 172.3125 202.6875 C172.30758545 203.91138428 172.3026709 205.13526855 172.29760742 206.39624023 C172.17141652 216.21777494 171.21738037 225.44566692 169 235 C168.83902832 235.73911621 168.67805664 236.47823242 168.51220703 237.23974609 C161.55319366 268.77256652 146.28162806 297.6925143 124 321 C123.33097656 321.7321875 122.66195312 322.464375 121.97265625 323.21875 C106.95031687 339.10830078 84.16395517 354.3247209 61.78515625 355.11328125 C58.85321143 355.12354477 55.93043357 355.08925178 53 355 C56.35439912 352.11639374 59.94098027 350.83648759 64.0625 349.4375 C101.65345092 335.93289408 128.42218903 307.22691545 146 272 C155.14455963 252.54099241 161.59481831 232.62359908 161.39111328 210.96557617 C161.37497262 208.93405386 161.39110898 206.90451134 161.41015625 204.87304688 C161.42459982 195.92282414 160.25530037 187.65841669 158 179 C157.71793701 177.89845581 157.71793701 177.89845581 157.43017578 176.7746582 C153.18578555 161.29402124 145.17246473 147.31403625 135 135 C134.32710938 134.15179688 133.65421875 133.30359375 132.9609375 132.4296875 C119.61936644 116.48975803 100.55736729 106.58258383 80 104 C80.94359375 104.3403125 81.8871875 104.680625 82.859375 105.03125 C96.21869275 110.00797633 106.676131 117.12893227 117 127 C117.88558594 127.79083984 117.88558594 127.79083984 118.7890625 128.59765625 C134.48175669 143.13756959 145.44914476 164.27592398 150 185 C150.18256348 185.8247583 150.36512695 186.6495166 150.55322266 187.49926758 C153.92717733 204.16023433 153.43371945 221.88621128 148 238 C147.59329947 239.33540499 147.18840172 240.67136014 146.78515625 242.0078125 C139.35391227 265.63371728 125.67724725 286.96319203 108.40087891 304.56835938 C107.07781515 305.92047611 105.77832477 307.29554397 104.48046875 308.671875 C85.51018919 328.40832094 57.49925142 345.80881082 29.4375 346.375 C17.93186695 345.93186695 17.93186695 345.93186695 14 342 C15.2375 341.68361572 15.2375 341.68361572 16.5 341.36083984 C60.40477062 330.07226671 97.60772266 313.36764592 121.74609375 272.94140625 C138.57015335 243.94287084 144.66197164 205.00603548 136.0703125 172.48046875 C131.60725686 158.5218775 121.44665189 141.29776793 109 133 C109.64066406 133.825 110.28132812 134.65 110.94140625 135.5 C129.51866135 160.04517129 133.73356929 188.85381267 130.3125 219.0625 C124.9395704 252.58655371 104.98402136 284.53248609 77.63671875 304.49609375 C51.71798344 322.79044174 20.61999826 331.18821076 -10.90625 326.6328125 C-13.80756586 326.03936153 -16.29989324 325.198928 -19 324 C-19 323.67 -19 323.34 -19 323 C-17.71609375 322.96261719 -16.4321875 322.92523438 -15.109375 322.88671875 C23.55964964 321.54058675 60.17476659 312.53866425 87.5625 283.375 C101.40180934 268.08278332 112.01815072 248.67906334 118 229 C118.30550781 228.00226563 118.61101562 227.00453125 118.92578125 225.9765625 C121.88553317 215.73666248 122.13260695 206.11311375 122.0625 195.5 C122.05573242 193.5509375 122.05573242 193.5509375 122.04882812 191.5625 C122.0371092 188.37495175 122.02070219 185.18750045 122 182 C121.34 182 120.68 182 120 182 C120.04640625 183.11375 120.0928125 184.2275 120.140625 185.375 C120.45484765 196.28249887 119.24780715 205.60272958 116 216 C115.66097656 217.14726562 115.32195312 218.29453125 114.97265625 219.4765625 C104.77291808 251.05582301 79.61663483 284.67971235 50.04394531 300.27832031 C20.59386349 314.7383862 -16.84773402 313.2134667 -47.4375 303.1875 C-50.3146937 302.18100975 -53.16092422 301.10910676 -56 300 C-56.70237793 299.72784668 -57.40475586 299.45569336 -58.12841797 299.17529297 C-70.58374728 294.26151191 -88.74325126 286.51349749 -95 274 C-91.89028869 275.46926727 -89.10834529 277.21647753 -86.25 279.125 C-76.18371589 285.57981939 -65.25111436 290.94482804 -54 295 C-53.29101562 295.26296875 -52.58203125 295.5259375 -51.8515625 295.796875 C-27.28952999 304.48669156 0.24295611 304.93703103 25 297 C26.20527344 296.61585938 27.41054687 296.23171875 28.65234375 295.8359375 C61.82568921 284.01416348 84.56828863 258.28233534 101 228 C101 227.67 101 227.34 101 227 C100.34515625 227.78761719 99.6903125 228.57523438 99.015625 229.38671875 C80.48892453 251.55007831 80.48892453 251.55007831 70 260 C68.98550781 260.84046875 67.97101563 261.6809375 66.92578125 262.546875 C48.21528633 277.84134595 27.84919769 287.72309221 4 292 C2.56914062 292.28810547 2.56914062 292.28810547 1.109375 292.58203125 C-31.62747833 296.98258817 -63.19176187 283.59756186 -89.125 264.5625 C-109.27466737 249.14475452 -126.46653289 227.89178485 -130 202 C-127.79585201 204.03979335 -126.37445192 205.89820974 -125.0546875 208.58984375 C-124.70470703 209.28585693 -124.35472656 209.98187012 -123.99414062 210.69897461 C-123.44016602 211.80704468 -123.44016602 211.80704468 -122.875 212.9375 C-116.83071047 224.66009684 -109.05126594 234.41072175 -100 244 C-99.30390625 244.76054687 -98.6078125 245.52109375 -97.890625 246.3046875 C-91.93208182 252.5894283 -85.24537546 257.34896393 -78 262 C-77.01902344 262.63035156 -76.03804687 263.26070313 -75.02734375 263.91015625 C-56.72251044 275.11971097 -35.26386786 281.17482887 -13.875 281.1875 C-12.81023437 281.19974609 -11.74546875 281.21199219 -10.6484375 281.22460938 C-3.23636143 281.23810223 3.73723503 280.45635961 11 279 C12.08015381 278.78887573 12.08015381 278.78887573 13.18212891 278.57348633 C23.75997733 276.39064935 33.31154115 272.70574678 43 268 C43.98742187 267.52691406 44.97484375 267.05382812 45.9921875 266.56640625 C56.97019242 260.95012258 66.64982221 253.03131012 75 244 C71.58052081 245.60821112 68.48902266 247.58324023 65.3125 249.625 C52.40046902 257.66959106 38.76271274 263.29118633 24.13525391 267.39794922 C22.29465158 267.91692079 20.4644733 268.47260694 18.63671875 269.03515625 C-6.75174473 275.83281459 -33.47871302 270.50138356 -55.99072266 257.88427734 C-88.32986132 238.81588037 -108.12719656 210.1186193 -118.75 174.5625 C-123.56580957 155.08987868 -124.75703882 136.3932366 -119 117 C-118.01 116.01 -118.01 116.01 -117 115 C-116.98018066 115.62342285 -116.96036133 116.2468457 -116.93994141 116.88916016 C-116.38800351 134.53432686 -116.38800351 134.53432686 -114 152 C-113.63455078 153.94132812 -113.63455078 153.94132812 -113.26171875 155.921875 C-107.71678416 183.11282803 -94.11345285 208.02677245 -75 228 C-74.25492188 228.81984375 -73.50984375 229.6396875 -72.7421875 230.484375 C-57.10089082 247.10647906 -33.78387966 258.89920854 -10.81884766 260.17700195 C10.90962304 260.64809755 10.90962304 260.64809755 32 256 C33.99856051 255.41175374 35.99839749 254.82781067 38 254.25 C39.33457717 253.83733469 40.66850189 253.42249459 42 253 C40.93652344 253.2165625 40.93652344 253.2165625 39.8515625 253.4375 C10.25434491 258.59730549 -20.74519012 254.96426539 -46 238 C-77.0699805 215.16334767 -95.56644916 180.60149644 -102 143 C-106.67473084 110.66916923 -103.96860698 75.81498651 -84 49 C-81.47359338 46.15517397 -78.85939697 43.50878971 -76 41 C-75 43 -75 43 -75.54150391 44.70141602 C-75.85007324 45.37873779 -76.15864258 46.05605957 -76.4765625 46.75390625 C-76.98473511 47.89907715 -76.98473511 47.89907715 -77.50317383 49.06738281 C-78.05847778 50.30246582 -78.05847778 50.30246582 -78.625 51.5625 C-89.11307719 75.69856775 -92.46538546 99.80701134 -92 126 C-91.98324219 127.19625 -91.96648437 128.3925 -91.94921875 129.625 C-90.5355516 163.22988759 -75.85761435 196.78656054 -51.25 219.625 C-32.19138552 235.50717873 -10.56335381 243.57556508 14 246 C13.1028125 245.731875 12.205625 245.46375 11.28125 245.1875 C-9.03256865 238.80795365 -28.10259325 228.22399552 -44 214 C-44.680625 213.401875 -45.36125 212.80375 -46.0625 212.1875 C-69.35762501 190.39528628 -77.80779354 158.78685631 -79.38671875 127.8359375 C-80.5296774 89.10479455 -67.17485391 51.89920611 -40.59545898 23.62280273 C-32.8261963 15.59682731 -12.54930286 -4.64788995 0 0 Z " fill="#E3E3E3" transform="translate(217,110)"/>
<path d="M0 0 C9.88207861 8.31614923 16.9363232 19.02032854 21.4765625 31.07421875 C21.79496094 31.87472656 22.11335937 32.67523438 22.44140625 33.5 C28.01071454 50.00260476 24.58421431 68.06085147 17.2265625 83.32421875 C8.14370958 100.60096452 -5.83613116 112.05901269 -24.21557617 118.22680664 C-41.28311366 123.32726877 -59.99123301 120.49791317 -75.68212891 112.54321289 C-82.63251485 108.75031711 -88.06159508 103.74281861 -93.5234375 98.07421875 C-94.11382812 97.51476562 -94.70421875 96.9553125 -95.3125 96.37890625 C-107.3198548 84.11470964 -111.04195643 65.84079289 -110.87109375 49.37695312 C-110.37537586 32.19641474 -103.42708924 16.7132668 -91.234375 4.62109375 C-65.37416682 -19.67408742 -28.42557174 -21.69319949 0 0 Z " fill="#020202" transform="translate(305.5234375,231.92578125)"/>
<path d="M0 0 C6.25626391 3.7458723 11.18204156 9.35862469 13.5 16.3125 C14.32552592 24.82721025 13.95455198 31.49431003 8.5 38.3125 C3.74069931 43.56852382 -1.69092162 46.71447989 -8.76171875 47.59375 C-16.09528878 47.89257119 -22.02315973 45.21768831 -27.859375 40.90625 C-32.68927404 36.21434808 -35.59656865 29.42164342 -35.875 22.75 C-35.78629681 15.99870179 -33.34808682 10.45864241 -28.8203125 5.45703125 C-27.11831234 3.9252311 -25.38868099 2.60430664 -23.5 1.3125 C-22.200625 0.384375 -22.200625 0.384375 -20.875 -0.5625 C-14.21798196 -2.78150601 -6.45195227 -3.01745296 0 0 Z " fill="#E6E6E6" transform="translate(273.5,261.6875)"/>
<path d="M0 0 C1.30710937 -0.00128906 2.61421875 -0.00257813 3.9609375 -0.00390625 C4.63479492 -0.00181152 5.30865234 0.0002832 6.00292969 0.00244141 C8.05671574 0.00779742 10.11028315 0.00247805 12.1640625 -0.00390625 C13.47117187 -0.00261719 14.77828125 -0.00132812 16.125 0 C17.31222656 0.00112793 18.49945313 0.00225586 19.72265625 0.00341797 C22.9214496 0.12734783 25.92186223 0.53109594 29.0625 1.1328125 C27.7425 2.7828125 26.4225 4.4328125 25.0625 6.1328125 C22.0625 5.1328125 22.0625 5.1328125 21.0625 4.1328125 C21.0625 6.4428125 21.0625 8.7528125 21.0625 11.1328125 C20.22178955 11.11710205 19.3810791 11.1013916 18.51489258 11.08520508 C15.3296954 11.03340437 12.14471617 10.99614137 8.95922852 10.96801758 C7.59294474 10.95313362 6.22670692 10.93281964 4.8605957 10.90649414 C-4.53579068 10.7302471 -12.89401875 11.56784158 -21.9375 14.1328125 C-22.99843872 14.41523804 -22.99843872 14.41523804 -24.08081055 14.70336914 C-42.00190441 19.65203758 -59.2950438 29.43681828 -71.9375 43.1328125 C-72.5975 42.8028125 -73.2575 42.4728125 -73.9375 42.1328125 C-63.86460483 29.93283127 -53.87207248 19.04267442 -39.9375 11.1328125 C-39.00292969 10.59785156 -38.06835938 10.06289062 -37.10546875 9.51171875 C-25.73196719 3.40626477 -12.92708244 0.01228143 0 0 Z " fill="#080808" transform="translate(294.9375,174.8671875)"/>
<path d="M0 0 C0.495 0.99 0.495 0.99 1 2 C0.29037109 2.61875 0.29037109 2.61875 -0.43359375 3.25 C-1.42552734 4.11625 -1.42552734 4.11625 -2.4375 5 C-3.17484375 5.64066406 -3.9121875 6.28132813 -4.671875 6.94140625 C-6.16187358 8.25890499 -7.63289007 9.59839042 -9.078125 10.96484375 C-23.10856776 24.08590596 -41.48456642 32.46707649 -60 37 C-60.76828125 37.21269531 -61.5365625 37.42539062 -62.328125 37.64453125 C-71.48919389 40.15120167 -80.64300435 40.13315981 -90.0625 40.0625 C-91.21427734 40.05798828 -92.36605469 40.05347656 -93.55273438 40.04882812 C-96.36854518 40.03714426 -99.18424398 40.02076281 -102 40 C-102 39.67 -102 39.34 -102 39 C-100.35 39 -98.7 39 -97 39 C-96.7525 38.195625 -96.505 37.39125 -96.25 36.5625 C-95 34 -95 34 -92.875 33.1875 C-92.25625 33.125625 -91.6375 33.06375 -91 33 C-91.99 32.34 -92.98 31.68 -94 31 C-94 30.34 -94 29.68 -94 29 C-92.98353394 28.99383667 -92.98353394 28.99383667 -91.9465332 28.98754883 C-76.31532159 28.82281555 -61.98380928 27.52030738 -47 23 C-46.27055176 22.78746582 -45.54110352 22.57493164 -44.78955078 22.35595703 C-28.73264699 17.58049172 -13.73580025 9.50557191 0 0 Z " fill="#080808" transform="translate(293,352)"/>
<path d="M0 0 C3.35250701 0.57575664 4.93818629 1.59306263 7.25 4.0625 C7.77078125 4.61035156 8.2915625 5.15820312 8.828125 5.72265625 C9.21484375 6.14417969 9.6015625 6.56570312 10 7 C9.608125 8.134375 9.21625 9.26875 8.8125 10.4375 C7.28719304 15.04247436 5.8416854 19.66940301 4.4375 24.3125 C4.22778564 24.98659912 4.01807129 25.66069824 3.80200195 26.35522461 C0.53243052 37.30241582 -0.38747017 48.10813655 -0.375 59.5 C-0.37556396 60.8092041 -0.37612793 62.1184082 -0.37670898 63.46728516 C-0.26214681 73.66770097 1.06336846 83.08349128 3.54248047 92.94824219 C4.28419885 96.27449687 4.63687447 99.61337661 5 103 C-10.89154639 84.21029926 -10.40686052 55.09620709 -9 32 C-7.82410381 20.78456344 -4.51503933 10.30687258 0 0 Z " fill="#070707" transform="translate(183,199)"/>
<path d="M0 0 C0.66 0 1.32 0 2 0 C6.20560483 33.77941796 -3.73778618 63.31638352 -23 91 C-23.33 89.68 -23.66 88.36 -24 87 C-27.6220226 85.99258627 -27.6220226 85.99258627 -31.1875 86.875 C-31.785625 87.24625 -32.38375 87.6175 -33 88 C-33.99 88.495 -33.99 88.495 -35 89 C-33.18308484 84.88858056 -30.52222582 81.39954299 -27.9375 77.75 C-22.38474135 69.78741548 -17.56503569 61.55944193 -13 53 C-12.4225 51.93910156 -11.845 50.87820313 -11.25 49.78515625 C-7.55414741 42.7537967 -5.0239881 35.67551044 -3 28 C-2.78472656 27.20464844 -2.56945312 26.40929687 -2.34765625 25.58984375 C-0.38398653 17.23349741 -0.35365094 8.54346213 0 0 Z " fill="#080808" transform="translate(337,292)"/>
<path d="M0 0 C-2.84891364 2.84891364 -6.2800455 3.43507998 -10.0625 4.5 C-10.83529297 4.72067139 -11.60808594 4.94134277 -12.40429688 5.16870117 C-14.60013291 5.7895752 -16.7989075 6.39805991 -19 7 C-20.39025391 7.38091797 -20.39025391 7.38091797 -21.80859375 7.76953125 C-26.94924099 9.04323885 -31.70780902 9.16800606 -37 9 C-37 8.34 -37 7.68 -37 7 C-38.7015625 7.2784375 -38.7015625 7.2784375 -40.4375 7.5625 C-42.2009375 7.7790625 -42.2009375 7.7790625 -44 8 C-45 7 -45 7 -45.0625 4.4375 C-45.041875 3.633125 -45.02125 2.82875 -45 2 C-43.76866333 2.01571045 -43.76866333 2.01571045 -42.51245117 2.03173828 C-39.41301547 2.06619827 -36.3136787 2.0910803 -33.21411133 2.10986328 C-31.23447104 2.12464917 -29.25491937 2.15008592 -27.27539062 2.17578125 C-20.43433324 2.21041952 -14.04817242 1.92706222 -7.3605957 0.43310547 C-4.8592634 -0.02582136 -2.53742869 -0.07165168 0 0 Z " fill="#0F0E0E" transform="translate(261,362)"/>
<path d="M0 0 C1.15224028 0.92961422 2.29659176 1.8690125 3.4375 2.8125 C4.39462891 3.59560547 4.39462891 3.59560547 5.37109375 4.39453125 C7 6 7 6 8 9 C6 12 6 12 3 13 C2.67 13.99 2.34 14.98 2 16 C-0.0625 16.6875 -0.0625 16.6875 -2 17 C-2.33 18.32 -2.66 19.64 -3 21 C-3.66 21 -4.32 21 -5 21 C-6.65 17.37 -8.3 13.74 -10 10 C-9.278125 9.46375 -8.55625 8.9275 -7.8125 8.375 C-4.752158 5.7907112 -2.48779989 3.12751986 0 0 Z " fill="#0C0A0B" transform="translate(283,297)"/>
<path d="M0 0 C-0.33 1.32 -0.66 2.64 -1 4 C-1.99 4 -2.98 4 -4 4 C-4 4.66 -4 5.32 -4 6 C-5.98 5.34 -7.96 4.68 -10 4 C-9.67 4.66 -9.34 5.32 -9 6 C-8.01 6.33 -7.02 6.66 -6 7 C-6.33 7.99 -6.66 8.98 -7 10 C-7.99 10 -8.98 10 -10 10 C-10.33 11.98 -10.66 13.96 -11 16 C-12.65 16.33 -14.3 16.66 -16 17 C-15.67 15.68 -15.34 14.36 -15 13 C-14.34 13 -13.68 13 -13 13 C-13 12.34 -13 11.68 -13 11 C-15.31 11.33 -17.62 11.66 -20 12 C-21.125 7.25 -21.125 7.25 -20 5 C-20.66 4.67 -21.32 4.34 -22 4 C-18.71122636 3.13441614 -15.4186065 2.28449158 -12.125 1.4375 C-11.18785156 1.19064453 -10.25070313 0.94378906 -9.28515625 0.68945312 C-8.38925781 0.46064453 -7.49335938 0.23183594 -6.5703125 -0.00390625 C-5.74289551 -0.21861572 -4.91547852 -0.4333252 -4.06298828 -0.65454102 C-2 -1 -2 -1 0 0 Z " fill="#120F10" transform="translate(262,432)"/>
<path d="M0 0 C1.55078125 1.05078125 1.55078125 1.05078125 3 3 C2.85546875 6.35546875 2.85546875 6.35546875 2.1875 10.1875 C1.97480469 11.45980469 1.76210938 12.73210937 1.54296875 14.04296875 C1.36378906 15.01878906 1.18460937 15.99460937 1 17 C0.34 16.34 -0.32 15.68 -1 15 C-4.11332248 15.66868314 -4.11332248 15.66868314 -5.1875 18.0625 C-5.455625 18.701875 -5.72375 19.34125 -6 20 C-6.99 20 -7.98 20 -9 20 C-11.18777466 21.9375006 -11.18777466 21.9375006 -13 24 C-12.80664062 23.3709375 -12.61328125 22.741875 -12.4140625 22.09375 C-10.7907875 16.75783615 -9.30539435 11.42240732 -8 6 C-5.03 6.495 -5.03 6.495 -2 7 C-1.855625 6.030625 -1.71125 5.06125 -1.5625 4.0625 C-1 1 -1 1 0 0 Z " fill="#121011" transform="translate(353,330)"/>
<path d="M0 0 C-1.01620005 3.04860014 -1.77391571 3.86666922 -4 6 C-4.33 6.66 -4.66 7.32 -5 8 C-8.34249629 7.40312566 -10.46436342 6.26396123 -13 4 C-13 3.34 -13 2.68 -13 2 C-13.66 2 -14.32 2 -15 2 C-15 2.99 -15 3.98 -15 5 C-15.66 5 -16.32 5 -17 5 C-17 5.66 -17 6.32 -17 7 C-16.05125 6.79375 -15.1025 6.5875 -14.125 6.375 C-12.578125 6.189375 -12.578125 6.189375 -11 6 C-10.34 6.66 -9.68 7.32 -9 8 C-9.375 10.625 -9.375 10.625 -10 13 C-11.32 13.33 -12.64 13.66 -14 14 C-13.34 12.35 -12.68 10.7 -12 9 C-12.969375 9.185625 -13.93875 9.37125 -14.9375 9.5625 C-15.948125 9.706875 -16.95875 9.85125 -18 10 C-19 9 -19 9 -19.0625 6.4375 C-19.041875 5.633125 -19.02125 4.82875 -19 4 C-20.65 3.67 -22.3 3.34 -24 3 C-24 2.67 -24 2.34 -24 2 C-21.12543208 1.66252452 -18.25043941 1.32989537 -15.375 1 C-14.16263672 0.85691406 -14.16263672 0.85691406 -12.92578125 0.7109375 C-8.59026261 0.21746383 -4.37262689 -0.11320717 0 0 Z " fill="#1A1919" transform="translate(249,54)"/>
<path d="M0 0 C0.33 0 0.66 0 1 0 C1.09733092 7.09434233 1.10087193 13.98194143 0 21 C-0.66 21 -1.32 21 -2 21 C-2 21.66 -2 22.32 -2 23 C-3.75 23.75 -3.75 23.75 -6 24 C-8.25 22.0625 -8.25 22.0625 -10 20 C-9.34 18.35 -8.68 16.7 -8 15 C-6.35 15 -4.7 15 -3 15 C-3 14.34 -3 13.68 -3 13 C-4.32 12.34 -5.64 11.68 -7 11 C-6.67 10.01 -6.34 9.02 -6 8 C-5.360625 8.185625 -4.72125 8.37125 -4.0625 8.5625 C-3.0415625 8.7790625 -3.0415625 8.7790625 -2 9 C-0.50256881 7.50256881 -0.66797307 6.01175761 -0.4375 3.9375 C-0.293125 2.638125 -0.14875 1.33875 0 0 Z " fill="#0D0D0D" transform="translate(488,285)"/>
<path d="M0 0 C3.125 0.375 3.125 0.375 6 1 C3.64593858 5.9335117 1.13615289 10.51978158 -2 15 C-2.33 13.68 -2.66 12.36 -3 11 C-6.6220226 9.99258627 -6.6220226 9.99258627 -10.1875 10.875 C-10.785625 11.24625 -11.38375 11.6175 -12 12 C-12.99 12.495 -12.99 12.495 -14 13 C-12.22054913 8.95579349 -9.60470327 5.53921513 -7 2 C-5.5 3.375 -5.5 3.375 -4 5 C-4 5.66 -4 6.32 -4 7 C-3.34 7 -2.68 7 -2 7 C-2.04125 6.21625 -2.0825 5.4325 -2.125 4.625 C-2 2 -2 2 0 0 Z " fill="#171617" transform="translate(316,368)"/>
<path d="M0 0 C0.33 0 0.66 0 1 0 C1.66 5.61 2.32 11.22 3 17 C2.01 16.67 1.02 16.34 0 16 C-0.33 17.65 -0.66 19.3 -1 21 C-4.37817425 21.84454356 -6.67465243 22.10844919 -10 21 C-8.25 15.25 -8.25 15.25 -6 13 C-5.01 13 -4.02 13 -3 13 C-0.96834048 8.66579301 -0.47939368 4.71403788 0 0 Z " fill="#141314" transform="translate(138,244)"/>
<path d="M0 0 C0.99 0.33 1.98 0.66 3 1 C2.67 2.65 2.34 4.3 2 6 C2.66 6 3.32 6 4 6 C4.33 5.34 4.66 4.68 5 4 C5.33 4.66 5.66 5.32 6 6 C4.6875 7.5 4.6875 7.5 3 9 C2.01 9 1.02 9 0 9 C-0.99 11.31 -1.98 13.62 -3 16 C-3.99 16 -4.98 16 -6 16 C-6.66 15.34 -7.32 14.68 -8 14 C-7.625 10.875 -7.625 10.875 -7 8 C-5.68 7.67 -4.36 7.34 -3 7 C-3.0928125 5.824375 -3.0928125 5.824375 -3.1875 4.625 C-3.125625 3.75875 -3.06375 2.8925 -3 2 C-2.01 1.34 -1.02 0.68 0 0 Z " fill="#0C0C0C" transform="translate(310,471)"/>
<path d="M0 0 C1.2065625 0.0309375 1.2065625 0.0309375 2.4375 0.0625 C1.5625 3.9375 1.5625 3.9375 0.4375 5.0625 C1.0975 5.3925 1.7575 5.7225 2.4375 6.0625 C2.7675 5.0725 3.0975 4.0825 3.4375 3.0625 C3.7675 4.0525 4.0975 5.0425 4.4375 6.0625 C2.4375 8.0625 2.4375 8.0625 -0.1875 8.1875 C-0.97125 8.14625 -1.755 8.105 -2.5625 8.0625 C-2.8925 10.3725 -3.2225 12.6825 -3.5625 15.0625 C-4.5525 15.0625 -5.5425 15.0625 -6.5625 15.0625 C-6.5625 18.0325 -6.5625 21.0025 -6.5625 24.0625 C-6.8925 24.0625 -7.2225 24.0625 -7.5625 24.0625 C-7.5625 18.4525 -7.5625 12.8425 -7.5625 7.0625 C-6.5725 6.7325 -5.5825 6.4025 -4.5625 6.0625 C-4.418125 5.258125 -4.27375 4.45375 -4.125 3.625 C-3.347189 0.08163876 -3.347189 0.08163876 0 0 Z " fill="#161415" transform="translate(42.5625,251.9375)"/>
<path d="M0 0 C2.29633824 3.44450737 2.54016485 5.93812283 3 10 C2.34 10 1.68 10 1 10 C0.9175 10.94875 0.835 11.8975 0.75 12.875 C0.5025 13.90625 0.255 14.9375 0 16 C-1.98 16.99 -1.98 16.99 -4 18 C-6.31 15.69 -8.62 13.38 -11 11 C-10.67 10.01 -10.34 9.02 -10 8 C-9.01 8.33 -8.02 8.66 -7 9 C-5.32345271 8.72057545 -3.65391846 8.39171753 -2 8 C-1.67 8 -1.34 8 -1 8 C-0.67 5.36 -0.34 2.72 0 0 Z " fill="#0B0B0B" transform="translate(420,261)"/>
<path d="M0 0 C2.31 1.98 4.62 3.96 7 6 C5.68 6.33 4.36 6.66 3 7 C3.33 7.99 3.66 8.98 4 10 C2.875 11.5625 2.875 11.5625 1 13 C-2.1875 12.6875 -2.1875 12.6875 -5 12 C-5.66523639 8.25804529 -6 4.79563172 -6 1 C-3.525 1.99 -3.525 1.99 -1 3 C-0.67 2.01 -0.34 1.02 0 0 Z " fill="#0C0B0B" transform="translate(380,204)"/>
<path d="M0 0 C0.99 0 1.98 0 3 0 C3 1.65 3 3.3 3 5 C4.65 4.67 6.3 4.34 8 4 C7.34 5.32 6.68 6.64 6 8 C4.35 8 2.7 8 1 8 C1.04125 8.78375 1.0825 9.5675 1.125 10.375 C1 13 1 13 -1 15 C-5.55555556 14.44444444 -5.55555556 14.44444444 -7 13 C-7.1875 10.5625 -7.1875 10.5625 -7 8 C-6.34 7.34 -5.68 6.68 -5 6 C-3.68 6 -2.36 6 -1 6 C-0.67 4.02 -0.34 2.04 0 0 Z " fill="#0B0B0B" transform="translate(254,233)"/>
<path d="M0 0 C0.66 0 1.32 0 2 0 C2.66 2.64 3.32 5.28 4 8 C3.34 8 2.68 8 2 8 C1.938125 8.61875 1.87625 9.2375 1.8125 9.875 C1 12 1 12 -1.5625 13.25 C-2.366875 13.4975 -3.17125 13.745 -4 14 C-5.5625 12.875 -5.5625 12.875 -7 11 C-6.625 8 -6.625 8 -6 5 C-6.33 4.01 -6.66 3.02 -7 2 C-3.125 2.875 -3.125 2.875 -2 4 C-1.34 2.68 -0.68 1.36 0 0 Z " fill="#0D0D0D" transform="translate(99,290)"/>
<path d="M0 0 C1.67542976 0.28604898 3.34385343 0.61781233 5 1 C4.67 2.32 4.34 3.64 4 5 C4.33 4.67 4.66 4.34 5 4 C5.66 4 6.32 4 7 4 C6.67 4.78375 6.34 5.5675 6 6.375 C4.88133489 8.84332497 4.88133489 8.84332497 5 11 C4.68521554 12.33783393 4.35412344 13.67203709 4 15 C2.68 14.67 1.36 14.34 0 14 C-2.47272727 5.41818182 -2.47272727 5.41818182 -1 1 C-0.67 0.67 -0.34 0.34 0 0 Z " fill="#0D0D0D" transform="translate(225,67)"/>
<path d="M0 0 C0.75390625 1.6640625 0.75390625 1.6640625 1 4 C-0.66015625 6.5859375 -0.66015625 6.5859375 -3.0625 9.375 C-3.8875 10.33792969 -4.7125 11.30085938 -5.5625 12.29296875 C-8.28285884 15.31413651 -11.05122308 18.20244241 -14 21 C-14.66 20.67 -15.32 20.34 -16 20 C-15.55269531 19.38253906 -15.10539062 18.76507813 -14.64453125 18.12890625 C-11.08595152 13.14385959 -7.90585436 8.23429501 -5.23828125 2.71484375 C-4 1 -4 1 -1.85546875 0.25390625 C-1.24316406 0.17011719 -0.63085938 0.08632813 0 0 Z " fill="#D3D3D3" transform="translate(379,410)"/>
<path d="M0 0 C0.99 0.33 1.98 0.66 3 1 C5.63804589 0.60602665 5.63804589 0.60602665 8 0 C6.46162154 3.19624262 4.71133468 6.21605574 2.875 9.25 C2.33617187 10.14203125 1.79734375 11.0340625 1.2421875 11.953125 C0.83226562 12.62859375 0.42234375 13.3040625 0 14 C-1.32 13.67 -2.64 13.34 -4 13 C-4.125 10.625 -4.125 10.625 -4 8 C-3.34 7.34 -2.68 6.68 -2 6 C-0.68 6 0.64 6 2 6 C1.01 5.01 0.02 4.02 -1 3 C-0.67 2.01 -0.34 1.02 0 0 Z " fill="#131313" transform="translate(195,190)"/>
<path d="M0 0 C3.35250701 0.57575664 4.93818629 1.59306263 7.25 4.0625 C8.03117188 4.88427734 8.03117188 4.88427734 8.828125 5.72265625 C9.21484375 6.14417969 9.6015625 6.56570312 10 7 C9.34 9.31 8.68 11.62 8 14 C7.67 13.34 7.34 12.68 7 12 C4.47266765 11.34444881 4.47266765 11.34444881 2 11 C1.20046862 7.71303767 0.90341064 6.28976808 2 3 C1.34 2.67 0.68 2.34 0 2 C0 1.34 0 0.68 0 0 Z " fill="#101010" transform="translate(183,199)"/>
<path d="M0 0 C3.81684226 1.55500981 6.19195732 4.03595495 9 7 C8.34 8.65 7.68 10.3 7 12 C4.625 12.125 4.625 12.125 2 12 C1.34 11.34 0.68 10.68 0 10 C0.03287583 7.27130593 0.56397771 4.7033382 1 2 C0.34 1.67 -0.32 1.34 -1 1 C-0.67 0.67 -0.34 0.34 0 0 Z " fill="#0B0B0B" transform="translate(204,83)"/>
<path d="M0 0 C1.67542976 0.28604898 3.34385343 0.61781233 5 1 C4.67 2.32 4.34 3.64 4 5 C4.99 4.67 5.98 4.34 7 4 C6.34 5.32 5.68 6.64 5 8 C3.35 8 1.7 8 0 8 C0 8.99 0 9.98 0 11 C-1.32 11 -2.64 11 -4 11 C-4.33 9.35 -4.66 7.7 -5 6 C-4.01 5.67 -3.02 5.34 -2 5 C-1.33820153 3.01954441 -1.33820153 3.01954441 -1 1 C-0.67 0.67 -0.34 0.34 0 0 Z " fill="#0E0D0D" transform="translate(113,276)"/>
<path d="M0 0 C0.33 0 0.66 0 1 0 C1 1.65 1 3.3 1 5 C2.98 5 4.96 5 7 5 C7 5.66 7 6.32 7 7 C5.35 7.33 3.7 7.66 2 8 C2 8.99 2 9.98 2 11 C1.34 11 0.68 11 0 11 C0 10.34 0 9.68 0 9 C-1.98 8.34 -3.96 7.68 -6 7 C-6.33 5.35 -6.66 3.7 -7 2 C-6.01 2 -5.02 2 -4 2 C-3.34 2.66 -2.68 3.32 -2 4 C-1.34 2.68 -0.68 1.36 0 0 Z " fill="#0B0B0B" transform="translate(340,440)"/>
<path d="M0 0 C2 2 2 2 2.1875 5.5625 C2 9 2 9 1 10 C-1.4375 10.1875 -1.4375 10.1875 -4 10 C-6 8 -6 8 -6.25 5.5 C-6 3 -6 3 -4 1 C-2 0.25 -2 0.25 0 0 Z " fill="#0A0A0A" transform="translate(63,232)"/>
<path d="M0 0 C1.65 0.33 3.3 0.66 5 1 C5 2.32 5 3.64 5 5 C7.97 5.495 7.97 5.495 11 6 C9 8 9 8 6 9 C6.33 9.66 6.66 10.32 7 11 C4.62051228 10.82374165 3.29774151 10.30280227 1.62109375 8.59765625 C0.37884514 7.09350908 -0.81376056 5.54870149 -2 4 C-1.34 2.68 -0.68 1.36 0 0 Z " fill="#111111" transform="translate(68,220)"/>
<path d="M0 0 C1.65 0.33 3.3 0.66 5 1 C4.67 2.32 4.34 3.64 4 5 C4.99 4.67 5.98 4.34 7 4 C6.67 5.32 6.34 6.64 6 8 C5.195625 8.12375 4.39125 8.2475 3.5625 8.375 C2.716875 8.58125 1.87125 8.7875 1 9 C0.67 9.66 0.34 10.32 0 11 C-1.65 9.35 -3.3 7.7 -5 6 C-3.68 6.33 -2.36 6.66 -1 7 C-1.20625 6.401875 -1.4125 5.80375 -1.625 5.1875 C-2 3 -2 3 0 0 Z " fill="#0F0F0F" transform="translate(395,189)"/>
<path d="M0 0 C0.33 0 0.66 0 1 0 C1.33 3.3 1.66 6.6 2 10 C1.34 9.34 0.68 8.68 0 8 C-0.33 9.65 -0.66 11.3 -1 13 C-3.8326134 11.5836933 -4.01707833 9.85502707 -5.125 6.9375 C-5.47820312 6.01839844 -5.83140625 5.09929687 -6.1953125 4.15234375 C-6.46085937 3.44207031 -6.72640625 2.73179687 -7 2 C-2.25 0.875 -2.25 0.875 0 2 C0 1.34 0 0.68 0 0 Z " fill="#161616" transform="translate(398,287)"/>
<path d="M0 0 C4.75 0.75 4.75 0.75 7 3 C6.625 5.625 6.625 5.625 6 8 C4.1875 8.625 4.1875 8.625 2 9 C-1 7 -1 7 -1.8125 5.0625 C-2 3 -2 3 0 0 Z " fill="#0A0A0A" transform="translate(223,460)"/>
<path d="M0 0 C4.55555556 0.55555556 4.55555556 0.55555556 6 2 C6.25 4.4375 6.25 4.4375 6 7 C3 9 3 9 0.875 8.6875 C-1 8 -1 8 -2 7 C-2.1875 4.5625 -2.1875 4.5625 -2 2 C-1.34 1.34 -0.68 0.68 0 0 Z " fill="#0B0B0B" transform="translate(218,270)"/>
<path d="M0 0 C2.375 0.3125 2.375 0.3125 5 1 C5.66 1.99 6.32 2.98 7 4 C9.6556728 4.58348752 9.6556728 4.58348752 12.625 4.6875 C13.62789062 4.75324219 14.63078125 4.81898438 15.6640625 4.88671875 C16.43492187 4.92410156 17.20578125 4.96148437 18 5 C18 5.33 18 5.66 18 6 C9.75 6 1.5 6 -7 6 C-7 5.67 -7 5.34 -7 5 C-5.35 5 -3.7 5 -2 5 C-1.34 3.35 -0.68 1.7 0 0 Z " fill="#222020" transform="translate(198,386)"/>
<path d="M0 0 C0.66 0 1.32 0 2 0 C1.34 1.65 0.68 3.3 0 5 C3.465 4.505 3.465 4.505 7 4 C7.6875 5.8125 7.6875 5.8125 8 8 C7.01 8.99 6.02 9.98 5 11 C2.03 8.69 -0.94 6.38 -4 4 C-2.68 2.68 -1.36 1.36 0 0 Z " fill="#121111" transform="translate(126,455)"/>
<path d="M0 0 C0.66 0.33 1.32 0.66 2 1 C2 1.66 2 2.32 2 3 C1.01 3.495 1.01 3.495 0 4 C0.94875 3.95875 1.8975 3.9175 2.875 3.875 C6 4 6 4 8 6 C7.63318342 8.93453261 7.13562754 9.86437246 5 12 C4.01 12 3.02 12 2 12 C2 10 2 10 3.5 8.375 C3.995 7.92125 4.49 7.4675 5 7 C2.69 7.33 0.38 7.66 -2 8 C-2.6875 5.6875 -2.6875 5.6875 -3 3 C-1.5625 1.1875 -1.5625 1.1875 0 0 Z " fill="#0C0C0C" transform="translate(238,246)"/>
<path d="M0 0 C2.3125 -0.25 2.3125 -0.25 5 0 C6.8125 2 6.8125 2 8 4 C7.34 5.32 6.68 6.64 6 8 C3.625 8.125 3.625 8.125 1 8 C0.34 7.34 -0.32 6.68 -1 6 C-0.625 2.875 -0.625 2.875 0 0 Z " fill="#0B0A0A" transform="translate(413,171)"/>
<path d="M0 0 C0.66 0.66 1.32 1.32 2 2 C3.0828125 2.8971875 3.0828125 2.8971875 4.1875 3.8125 C6 6 6 6 5.75 8.75 C5.5025 9.4925 5.255 10.235 5 11 C2.625 11.125 2.625 11.125 0 11 C-2 9 -2 9 -2.25 6.625 C-1.99345272 3.93125358 -1.36770587 2.30800365 0 0 Z " fill="#080808" transform="translate(158,132)"/>
<path d="M0 0 C2.45327682 1.18706943 3.47654 2.673012 4.9375 4.9375 C2.9575 4.9375 0.9775 4.9375 -1.0625 4.9375 C-1.7225 6.9175 -2.3825 8.8975 -3.0625 10.9375 C-3.7225 10.9375 -4.3825 10.9375 -5.0625 10.9375 C-7.0625 7.9375 -7.0625 7.9375 -6.9375 5.4375 C-5.69429716 1.88549189 -3.92801089 -0.11903063 0 0 Z " fill="#040404" transform="translate(317.0625,364.0625)"/>
<path d="M0 0 C0.598125 0.226875 1.19625 0.45375 1.8125 0.6875 C1.4825 2.3375 1.1525 3.9875 0.8125 5.6875 C1.8025 5.0275 2.7925 4.3675 3.8125 3.6875 C3.8125 4.6775 3.8125 5.6675 3.8125 6.6875 C-0.8125 8.8125 -0.8125 8.8125 -4.1875 7.6875 C-4.875 5.375 -4.875 5.375 -5.1875 2.6875 C-3.60587179 0.1901923 -2.97595617 -0.4251366 0 0 Z " fill="#0C0C0C" transform="translate(300.1875,91.3125)"/>
<path d="M0 0 C5.28 0 10.56 0 16 0 C16 0.33 16 0.66 16 1 C11.545 1.495 11.545 1.495 7 2 C7.66 2.66 8.32 3.32 9 4 C9.66 4 10.32 4 11 4 C10.67 5.32 10.34 6.64 10 8 C8.68 8 7.36 8 6 8 C3.875 5.5625 3.875 5.5625 2 3 C1.34 2.67 0.68 2.34 0 2 C0 1.34 0 0.68 0 0 Z " fill="#121011" transform="translate(199,381)"/>
<path d="M0 0 C3.125 0.375 3.125 0.375 6 1 C4.68 3.64 3.36 6.28 2 9 C0.68 9 -0.64 9 -2 9 C-2.125 5.625 -2.125 5.625 -2 2 C-1.34 1.34 -0.68 0.68 0 0 Z " fill="#0F0F0F" transform="translate(316,368)"/>
<path d="M0 0 C4.24908336 1.59846469 6.82225739 4.8130392 9.75 8.125 C10.25660156 8.68832031 10.76320313 9.25164062 11.28515625 9.83203125 C12.52884532 11.21651531 13.76516305 12.60761488 15 14 C14.34 15.32 13.68 16.64 13 18 C10.01325833 14.30082454 7.11160179 10.54676577 4.25 6.75 C3.83878906 6.20859375 3.42757813 5.6671875 3.00390625 5.109375 C0 1.11747301 0 1.11747301 0 0 Z " fill="#181617" transform="translate(324,241)"/>
<path d="M0 0 C0.33 0.99 0.66 1.98 1 3 C0.67 3.66 0.34 4.32 0 5 C0.78375 4.814375 1.5675 4.62875 2.375 4.4375 C5 4 5 4 7 5 C7 6.98 7 8.96 7 11 C5.35 11.33 3.7 11.66 2 12 C2.99 10.35 3.98 8.7 5 7 C2.69 7.33 0.38 7.66 -2 8 C-2.6875 5.6875 -2.6875 5.6875 -3 3 C-1.5625 1.1875 -1.5625 1.1875 0 0 Z " fill="#0D0D0D" transform="translate(305,80)"/>
<path d="M0 0 C1.67542976 0.28604898 3.34385343 0.61781233 5 1 C4.34 2.32 3.68 3.64 3 5 C3.66 5.33 4.32 5.66 5 6 C5 5.34 5 4.68 5 4 C5.66 4 6.32 4 7 4 C6.34 5.65 5.68 7.3 5 9 C0.25 8.25 0.25 8.25 -2 6 C-1.44444444 1.44444444 -1.44444444 1.44444444 0 0 Z " fill="#0C0C0C" transform="translate(401,379)"/>
<path d="M0 0 C1.67542976 0.28604898 3.34385343 0.61781233 5 1 C4.6875 4.375 4.6875 4.375 4 8 C3.01 8.66 2.02 9.32 1 10 C-0.5625 8.875 -0.5625 8.875 -2 7 C-1.56521739 1.56521739 -1.56521739 1.56521739 0 0 Z " fill="#2D2D2D" transform="translate(304,478)"/>
<path d="M0 0 C2.125 0.375 2.125 0.375 4 1 C3.67 2.65 3.34 4.3 3 6 C4.32 5.67 5.64 5.34 7 5 C6.01 6.32 5.02 7.64 4 9 C1.03 8.505 1.03 8.505 -2 8 C-2.125 5.125 -2.125 5.125 -2 2 C-1.34 1.34 -0.68 0.68 0 0 Z " fill="#0C0C0C" transform="translate(231,257)"/>
<path d="M0 0 C0.66 0 1.32 0 2 0 C2 0.66 2 1.32 2 2 C1.34 2 0.68 2 0 2 C0 2.66 0 3.32 0 4 C1.423125 3.690625 1.423125 3.690625 2.875 3.375 C3.90625 3.25125 4.9375 3.1275 6 3 C6.66 3.66 7.32 4.32 8 5 C7.625 7.625 7.625 7.625 7 10 C5.68 10.33 4.36 10.66 3 11 C3.66 9.35 4.32 7.7 5 6 C3.02 6.33 1.04 6.66 -1 7 C-1.625 4.625 -1.625 4.625 -2 2 C-1.34 1.34 -0.68 0.68 0 0 Z " fill="#0D0D0D" transform="translate(232,57)"/>
<path d="M0 0 C0.33 0 0.66 0 1 0 C1.05418326 2.08304538 1.09287551 4.16649768 1.125 6.25 C1.14820313 7.41015625 1.17140625 8.5703125 1.1953125 9.765625 C1.0103949 12.82786046 0.60823023 14.44202751 -1 17 C-1.66 16.67 -2.32 16.34 -3 16 C-3 15.01 -3 14.02 -3 13 C-4.32 12.34 -5.64 11.68 -7 11 C-6.67 10.01 -6.34 9.02 -6 8 C-5.360625 8.185625 -4.72125 8.37125 -4.0625 8.5625 C-3.0415625 8.7790625 -3.0415625 8.7790625 -2 9 C-0.50256881 7.50256881 -0.66797307 6.01175761 -0.4375 3.9375 C-0.293125 2.638125 -0.14875 1.33875 0 0 Z " fill="#191919" transform="translate(488,285)"/>
<path d="M0 0 C2.97 0.495 2.97 0.495 6 1 C2.6189962 5.13621084 -0.66590534 8.81316569 -5 12 C-5.6875 9.6875 -5.6875 9.6875 -6 7 C-4.6875 5.1875 -4.6875 5.1875 -3 4 C-2.34 4 -1.68 4 -1 4 C-0.67 2.68 -0.34 1.36 0 0 Z " fill="#181818" transform="translate(216,169)"/>
<path d="M0 0 C1.5625 1.0625 1.5625 1.0625 3 3 C2.6875 6.6875 2.6875 6.6875 2 10 C-1.75 11.125 -1.75 11.125 -4 10 C-2.8905928 6.51329166 -1.73662334 3.22515763 0 0 Z " fill="#151515" transform="translate(392,390)"/>
<path d="M0 0 C3.875 1.875 3.875 1.875 5 3 C5.66 2.01 6.32 1.02 7 0 C8.65 1.98 10.3 3.96 12 6 C10.68 5.67 9.36 5.34 8 5 C7.67 6.32 7.34 7.64 7 9 C5.82460004 8.07347299 4.65989423 7.13336613 3.5 6.1875 C2.52546875 5.40439453 2.52546875 5.40439453 1.53125 4.60546875 C0 3 0 3 0 0 Z " fill="#110F10" transform="translate(163,320)"/>
<path d="M0 0 C0.66 0.33 1.32 0.66 2 1 C1.34 2.98 0.68 4.96 0 7 C0.99 7 1.98 7 3 7 C3 6.34 3 5.68 3 5 C3.99 4.67 4.98 4.34 6 4 C5.125 7.875 5.125 7.875 4 9 C1.5625 9.1875 1.5625 9.1875 -1 9 C-3 7 -3 7 -3.3125 4.5 C-3.209375 3.675 -3.10625 2.85 -3 2 C-2.01 1.34 -1.02 0.68 0 0 Z " fill="#0C0C0C" transform="translate(138,447)"/>
<path d="M0 0 C1.875 0.25 1.875 0.25 4 1 C5.0625 2.9375 5.0625 2.9375 6 5 C6.99 5.66 7.98 6.32 9 7 C8.67 7.66 8.34 8.32 8 9 C4.51460083 8.35455571 1.97180943 6.89865603 -1 5 C-0.67 3.35 -0.34 1.7 0 0 Z " fill="#0C0C0C" transform="translate(320,457)"/>
<path d="M0 0 C-0.33 1.32 -0.66 2.64 -1 4 C-1.99 4 -2.98 4 -4 4 C-4 4.66 -4 5.32 -4 6 C-6.97 5.01 -9.94 4.02 -13 3 C-3.5 -1.75 -3.5 -1.75 0 0 Z " fill="#201E1F" transform="translate(262,432)"/>
<path d="M0 0 C1.32 0 2.64 0 4 0 C4.33 2.31 4.66 4.62 5 7 C3.02 7.99 3.02 7.99 1 9 C-0.61949011 6.42786866 -1.04408751 5.32330841 -0.625 2.25 C-0.41875 1.5075 -0.2125 0.765 0 0 Z " fill="#111011" transform="translate(323,263)"/>
<path d="M0 0 C0.99 0 1.98 0 3 0 C2.67 0.99 2.34 1.98 2 3 C4.31 3 6.62 3 9 3 C9.33 3.99 9.66 4.98 10 6 C12.31 6 14.62 6 17 6 C17 6.33 17 6.66 17 7 C14.03 7 11.06 7 8 7 C8 6.34 8 5.68 8 5 C6.2984375 5.2784375 6.2984375 5.2784375 4.5625 5.5625 C2.7990625 5.7790625 2.7990625 5.7790625 1 6 C0 5 0 5 -0.0625 2.4375 C-0.041875 1.633125 -0.02125 0.82875 0 0 Z " fill="#131011" transform="translate(216,364)"/>
<path d="M0 0 C2.475 0.495 2.475 0.495 5 1 C5.33 1.99 5.66 2.98 6 4 C6.99 4.33 7.98 4.66 9 5 C9 5.99 9 6.98 9 8 C5.65626525 7.44271087 2.96687001 6.64826111 0 5 C0 3.35 0 1.7 0 0 Z " fill="#0C0B0C" transform="translate(431,249)"/>
<path d="M0 0 C1.65 0 3.3 0 5 0 C5.33 1.32 5.66 2.64 6 4 C7.32 4.33 8.64 4.66 10 5 C9.67 5.99 9.34 6.98 9 8 C5.81390075 7.64598897 4.20933322 7.16972964 1.6875 5.125 C0 3 0 3 0 0 Z " fill="#0C0C0C" transform="translate(51,238)"/>
<path d="M0 0 C1.65 0 3.3 0 5 0 C5.103125 0.61875 5.20625 1.2375 5.3125 1.875 C5.87525373 4.36526484 5.87525373 4.36526484 9 6 C9 6.66 9 7.32 9 8 C8.01 8.33 7.02 8.66 6 9 C5.67 8.01 5.34 7.02 5 6 C2.98491642 5.26676204 2.98491642 5.26676204 1 5 C0.67 3.35 0.34 1.7 0 0 Z " fill="#110F10" transform="translate(333,151)"/>
<path d="M0 0 C1.875 0.25 1.875 0.25 4 1 C4.6837045 2.32467746 5.34964186 3.65863633 6 5 C8.0335948 6.26804566 8.0335948 6.26804566 10 7 C9.34 7.66 8.68 8.32 8 9 C5.17989982 8.81199332 3.96327574 7.97041657 1.75 6.1875 C0 4 0 4 0 0 Z " fill="#0F0C0D" transform="translate(149,335)"/>
<path d="M0 0 C0 0.33 0 0.66 0 1 C-1.14597656 1.06058594 -2.29195313 1.12117187 -3.47265625 1.18359375 C-5.00261297 1.26806989 -6.53256041 1.35271427 -8.0625 1.4375 C-9.19075195 1.49647461 -9.19075195 1.49647461 -10.34179688 1.55664062 C-14.94698741 1.81580719 -19.44366724 2.2799421 -24 3 C-17.43118938 -3.56881062 -8.21187998 -1.96125656 0 0 Z " fill="#202020" transform="translate(279,202)"/>
<path d="M0 0 C1.32 0.66 2.64 1.32 4 2 C3.67 3.65 3.34 5.3 3 7 C2.01 7 1.02 7 0 7 C-2.18777466 8.9375006 -2.18777466 8.9375006 -4 11 C-3.5247412 9.35303396 -3.04468109 7.70745272 -2.5625 6.0625 C-2.29566406 5.14597656 -2.02882813 4.22945313 -1.75390625 3.28515625 C-1 1 -1 1 0 0 Z " fill="#1A1819" transform="translate(344,343)"/>
<path d="M0 0 C2.0625 0.4375 2.0625 0.4375 4 1 C4.0825 1.61875 4.165 2.2375 4.25 2.875 C4.81258459 5.18437567 4.81258459 5.18437567 7.0625 6.25 C7.701875 6.4975 8.34125 6.745 9 7 C7.3125 8.1875 7.3125 8.1875 5 9 C2.3125 7.9375 2.3125 7.9375 0 6 C-0.875 3.375 -0.875 3.375 -1 1 C-0.67 0.67 -0.34 0.34 0 0 Z " fill="#0C0C0C" transform="translate(144,145)"/>
<path d="M0 0 C0.66 0.33 1.32 0.66 2 1 C2.33 1.99 2.66 2.98 3 4 C3.99 4.66 4.98 5.32 6 6 C-1.92 5.67 -9.84 5.34 -18 5 C-18 4.67 -18 4.34 -18 4 C-12.39 4 -6.78 4 -1 4 C-0.67 2.68 -0.34 1.36 0 0 Z " fill="#4E4E4E" transform="translate(309,180)"/>
<path d="M0 0 C3.63 0.33 7.26 0.66 11 1 C9.68 2.65 8.36 4.3 7 6 C6.01 5.67 5.02 5.34 4 5 C4 4.34 4 3.68 4 3 C3.34 3 2.68 3 2 3 C2 2.34 2 1.68 2 1 C1.34 0.67 0.68 0.34 0 0 Z " fill="#272626" transform="translate(313,175)"/>
<path d="M0 0 C2.4375 0.375 2.4375 0.375 5 1 C5.33 1.66 5.66 2.32 6 3 C5.0625 5.125 5.0625 5.125 4 7 C2.35 6.01 0.7 5.02 -1 4 C-0.67 2.68 -0.34 1.36 0 0 Z " fill="#0C0A0A" transform="translate(308,377)"/>
<path d="M0 0 C1.65 0 3.3 0 5 0 C4.25 6.625 4.25 6.625 2 10 C1.34 6.7 0.68 3.4 0 0 Z " fill="#151314" transform="translate(430,256)"/>
<path d="M0 0 C1.32 0.99 2.64 1.98 4 3 C3.34 4.65 2.68 6.3 2 8 C1.34 7.67 0.68 7.34 0 7 C-0.99 7.33 -1.98 7.66 -3 8 C-2.37240135 5.07120629 -1.41377341 2.63904371 0 0 Z " fill="#DBDBDB" transform="translate(379,404)"/>
<path d="M0 0 C0.928125 0.20625 1.85625 0.4125 2.8125 0.625 C2.8125 2.605 2.8125 4.585 2.8125 6.625 C2.1525 6.625 1.4925 6.625 0.8125 6.625 C-0.8125 4.625 -0.8125 4.625 -2.1875 2.625 C-4.1675 3.615 -4.1675 3.615 -6.1875 4.625 C-6.1875 3.635 -6.1875 2.645 -6.1875 1.625 C-3.1875 -0.375 -3.1875 -0.375 0 0 Z " fill="#0C0C0C" transform="translate(294.1875,294.375)"/>
<path d="M0 0 C-1 3 -1 3 -4 5 C-6.125 4.8125 -6.125 4.8125 -8 4 C-8.33 3.01 -8.66 2.02 -9 1 C-5.8035914 -0.06546953 -3.34252724 -0.07427838 0 0 Z " fill="#110F10" transform="translate(249,54)"/>
<path d="M0 0 C0.66 0 1.32 0 2 0 C2.33 4.29 2.66 8.58 3 13 C2.01 12.67 1.02 12.34 0 12 C0 8.04 0 4.08 0 0 Z " fill="#3D3D3D" transform="translate(337,292)"/>
<path d="M0 0 C0.33 0.66 0.66 1.32 1 2 C-1.12682617 7.05121216 -4.31941424 8.61555065 -9 11 C-9 10.01 -9 9.02 -9 8 C-6 6 -6 6 -3 6 C-2.814375 5.071875 -2.814375 5.071875 -2.625 4.125 C-2 2 -2 2 0 0 Z " fill="#191919" transform="translate(231,159)"/>
<path d="M0 0 C0.66 0.99 1.32 1.98 2 3 C4.05925139 3.72382467 4.05925139 3.72382467 6 4 C6.33 5.32 6.66 6.64 7 8 C2.545 7.01 2.545 7.01 -2 6 C-1.34 4.02 -0.68 2.04 0 0 Z " fill="#181818" transform="translate(242,343)"/>
<path d="M0 0 C1.58409994 0.11487748 3.16728963 0.24234508 4.75 0.375 C6.07257813 0.47941406 6.07257813 0.47941406 7.421875 0.5859375 C9.99066382 0.99850055 11.75841015 1.71160957 14 3 C13.67 3.66 13.34 4.32 13 5 C11.39402675 4.54803755 9.79027492 4.08817673 8.1875 3.625 C6.84751953 3.24214844 6.84751953 3.24214844 5.48046875 2.8515625 C3 2 3 2 0 0 Z " fill="#222222" transform="translate(294,213)"/>
<path d="M0 0 C3.21043882 1.38188453 5.04936365 2.92421903 7.25 5.625 C8.03117187 6.57246094 8.03117187 6.57246094 8.828125 7.5390625 C9.40820312 8.26222656 9.40820312 8.26222656 10 9 C8.68 9 7.36 9 6 9 C4.296875 7.03125 4.296875 7.03125 2.75 4.5 C2.22921875 3.6646875 1.7084375 2.829375 1.171875 1.96875 C0.78515625 1.3190625 0.3984375 0.669375 0 0 Z " fill="#3A3A3A" transform="translate(324,241)"/>
<path d="M0 0 C0.33 0.66 0.66 1.32 1 2 C0.14453125 4.12890625 0.14453125 4.12890625 -1.1875 6.5625 C-1.61417969 7.36816406 -2.04085938 8.17382812 -2.48046875 9.00390625 C-4 11 -4 11 -6.17578125 11.77734375 C-7.07876953 11.88755859 -7.07876953 11.88755859 -8 12 C-6.59023295 8.96147295 -4.91129772 6.4060405 -2.875 3.75 C-2.06675781 2.69039063 -2.06675781 2.69039063 -1.2421875 1.609375 C-0.83226562 1.07828125 -0.42234375 0.5471875 0 0 Z " fill="#262626" transform="translate(319,334)"/>
<path d="M0 0 C0.66 0 1.32 0 2 0 C2.66 1.32 3.32 2.64 4 4 C4.99 4 5.98 4 7 4 C7 4.99 7 5.98 7 7 C5.02 7.33 3.04 7.66 1 8 C0.67 5.36 0.34 2.72 0 0 Z " fill="#141414" transform="translate(406,277)"/>
<path d="M0 0 C2.29633824 3.44450737 2.54016485 5.93812283 3 10 C2.01 10 1.02 10 0 10 C-1.125 3.375 -1.125 3.375 0 0 Z " fill="#1D1C1C" transform="translate(420,261)"/>
<path d="M0 0 C0.33 0.66 0.66 1.32 1 2 C-1.56368639 6.07173721 -5.07314331 8.3749232 -9 11 C-7.59155282 7.78475695 -5.89655214 5.67816132 -3.375 3.25 C-2.74335938 2.63640625 -2.11171875 2.0228125 -1.4609375 1.390625 C-0.73777344 0.70226562 -0.73777344 0.70226562 0 0 Z " fill="#C6C6C6" transform="translate(141,151)"/>
<path d="M0 0 C0.66 0 1.32 0 2 0 C1.814375 0.5775 1.62875 1.155 1.4375 1.75 C0.95976454 4.20692525 1.24270636 5.64397534 2 8 C0.68 7.34 -0.64 6.68 -2 6 C-2 2 -2 2 0 0 Z " fill="#0D0D0D" transform="translate(330,154)"/>
<path d="M0 0 C1.98 0.495 1.98 0.495 4 1 C4 2.32 4 3.64 4 5 C2.35 5 0.7 5 -1 5 C-0.67 3.35 -0.34 1.7 0 0 Z " fill="#CBCBCB" transform="translate(152,109)"/>
<path d="M0 0 C1.32 0.66 2.64 1.32 4 2 C3.67 2.99 3.34 3.98 3 5 C1.35 4.67 -0.3 4.34 -2 4 C-1.34 2.68 -0.68 1.36 0 0 Z " fill="#C6C6C6" transform="translate(68,220)"/>
<path d="M0 0 C0.598125 0.165 1.19625 0.33 1.8125 0.5 C4.11344336 1.1114124 4.11344336 1.1114124 7 1 C6.34 2.65 5.68 4.3 5 6 C3.2925002 4.71937515 1.62626404 3.38232443 0 2 C0 1.34 0 0.68 0 0 Z " fill="#0D0D0D" transform="translate(297,478)"/>
<path d="M0 0 C1.98 0.495 1.98 0.495 4 1 C3.67 2.32 3.34 3.64 3 5 C1.68 4.67 0.36 4.34 -1 4 C-0.67 2.68 -0.34 1.36 0 0 Z " fill="#CECECE" transform="translate(70,350)"/>
<path d="M0 0 C1.98 0 3.96 0 6 0 C6 1.98 6 3.96 6 6 C3.97945196 4.35830472 1.97956942 2.69088222 0 1 C0 0.67 0 0.34 0 0 Z " fill="#171415" transform="translate(147,343)"/>
<path d="M0 0 C1.32 0 2.64 0 4 0 C3.67 1.65 3.34 3.3 3 5 C2.01 5 1.02 5 0 5 C-0.5625 3.0625 -0.5625 3.0625 -1 1 C-0.67 0.67 -0.34 0.34 0 0 Z " fill="#CDCDCD" transform="translate(395,128)"/>
<path d="M0 0 C1.98 0.495 1.98 0.495 4 1 C3.67 2.32 3.34 3.64 3 5 C1.68 4.67 0.36 4.34 -1 4 C-0.67 2.68 -0.34 1.36 0 0 Z " fill="#CDCDCD" transform="translate(226,77)"/>
<path d="M0 0 C0.99 0.33 1.98 0.66 3 1 C3 1.66 3 2.32 3 3 C3.99 3 4.98 3 6 3 C6.33 2.34 6.66 1.68 7 1 C7.66 1.66 8.32 2.32 9 3 C6.69 3.66 4.38 4.32 2 5 C1.34 4.34 0.68 3.68 0 3 C0 2.01 0 1.02 0 0 Z " fill="#131313" transform="translate(261,417)"/>
<path d="M0 0 C1.32 0.66 2.64 1.32 4 2 C3.67 2.99 3.34 3.98 3 5 C1.68 5 0.36 5 -1 5 C-0.67 3.35 -0.34 1.7 0 0 Z " fill="#D1D1D1" transform="translate(459,335)"/>
<path d="M0 0 C2.56616632 3.84924948 2.55097676 6.4349304 3 11 C0.5091419 8.07594919 -0.59599278 5.83806856 -1 2 C-0.67 1.34 -0.34 0.68 0 0 Z " fill="#313131" transform="translate(185,291)"/>
<path d="M0 0 C2.00720923 0.28674418 4.0085944 0.61866701 6 1 C6 1.66 6 2.32 6 3 C4.68 3 3.36 3 2 3 C1.67 3.66 1.34 4.32 1 5 C0.34 3.68 -0.32 2.36 -1 1 C-0.67 0.67 -0.34 0.34 0 0 Z " fill="#0D0D0D" transform="translate(392,288)"/>
<path d="M0 0 C2.0625 0.4375 2.0625 0.4375 4 1 C4 1.66 4 2.32 4 3 C6.31 3 8.62 3 11 3 C11 3.33 11 3.66 11 4 C8.03 4 5.06 4 2 4 C2 3.34 2 2.68 2 2 C1.01 1.67 0.02 1.34 -1 1 C-0.67 0.67 -0.34 0.34 0 0 Z " fill="#272526" transform="translate(222,367)"/>
<path d="M0 0 C0.66 0.33 1.32 0.66 2 1 C1.64950425 4.24208567 1.43778819 5.61527704 -1.0625 7.8125 C-1.701875 8.204375 -2.34125 8.59625 -3 9 C-2.01 6.03 -1.02 3.06 0 0 Z " fill="#1C1C1C" transform="translate(137,162)"/>
<path d="M0 0 C1.32 0 2.64 0 4 0 C3.67 1.65 3.34 3.3 3 5 C2.01 4.67 1.02 4.34 0 4 C0 2.68 0 1.36 0 0 Z " fill="#CDCDCD" transform="translate(390,434)"/>
<path d="M0 0 C0.66 0.33 1.32 0.66 2 1 C1.34 2.32 0.68 3.64 0 5 C-1.32 4.67 -2.64 4.34 -4 4 C-3.67 3.01 -3.34 2.02 -3 1 C-2.01 0.67 -1.02 0.34 0 0 Z " fill="#151414" transform="translate(260,431)"/>
<path d="M0 0 C1.9375 0.75 1.9375 0.75 4 2 C4.75 4.125 4.75 4.125 5 6 C3.0625 5.25 3.0625 5.25 1 4 C0.25 1.875 0.25 1.875 0 0 Z " fill="#0C0C0C" transform="translate(255,227)"/>
<path d="M0 0 C0.33 0 0.66 0 1 0 C1 1.65 1 3.3 1 5 C1.99 5.33 2.98 5.66 4 6 C2.0625 6.5625 2.0625 6.5625 0 7 C-1 6 -1 6 -1.125 3.5 C-1 1 -1 1 0 0 Z " fill="#0D0D0D" transform="translate(315,74)"/>
<path d="M0 0 C0.66 0 1.32 0 2 0 C3.38232443 1.62626404 4.71937515 3.2925002 6 5 C3.36 5 0.72 5 -2 5 C-1.34 3.35 -0.68 1.7 0 0 Z " fill="#030101" transform="translate(245,436)"/>
<path d="M0 0 C0.66 0.33 1.32 0.66 2 1 C1.67 2.65 1.34 4.3 1 6 C-0.32 6.33 -1.64 6.66 -3 7 C-2.01 4.69 -1.02 2.38 0 0 Z " fill="#1A1A1A" transform="translate(387,400)"/>
<path d="M0 0 C1.98 1.65 3.96 3.3 6 5 C5.34 5.66 4.68 6.32 4 7 C1 5 1 5 0.3125 2.375 C0.209375 1.59125 0.10625 0.8075 0 0 Z " fill="#191718" transform="translate(154,333)"/>
<path d="M0 0 C0.99 0 1.98 0 3 0 C2.67 1.65 2.34 3.3 2 5 C1.01 4.67 0.02 4.34 -1 4 C-0.67 2.68 -0.34 1.36 0 0 Z " fill="#C5C5C5" transform="translate(290,77)"/>
</svg>
